<?xml version="1.0" standalone="no"?>
<!DOCTYPE svg PUBLIC "-//W3C//DTD SVG 20010904//EN"
 "http://www.w3.org/TR/2001/REC-SVG-20010904/DTD/svg10.dtd">
<svg version="1.0" xmlns="http://www.w3.org/2000/svg"
 width="120.000000pt" height="120.000000pt" viewBox="0 0 120.000000 120.000000"
 preserveAspectRatio="xMidYMid meet">
<metadata>
Created by potrace 1.11, written by Peter Selinger 2001-2013
</metadata>
<g transform="translate(0.000000,120.000000) scale(0.100000,-0.100000)"
fill="#000000" stroke="none">
<path d="M510 1192 c-70 -22 -159 -66 -153 -74 3 -7 1 -8 -6 -4 -15 10 -123
-52 -115 -66 4 -7 2 -8 -5 -4 -26 17 -182 -148 -165 -175 4 -7 3 -9 -3 -6 -20
13 -26 -39 -30 -259 -3 -175 0 -228 11 -255 20 -48 96 -140 108 -132 6 3 8 1
5 -5 -9 -14 89 -86 104 -76 8 4 9 3 5 -5 -5 -8 29 -29 106 -65 62 -29 125 -56
141 -60 l27 -6 0 145 0 145 -64 31 c-145 71 -176 120 -176 279 0 121 16 169
71 214 58 47 64 51 71 54 4 1 28 11 53 22 l45 19 0 140 c0 77 -3 142 -7 144
-5 2 -15 2 -23 -1z"/>
<path d="M679 1153 c-2 -192 -1 -232 7 -245 5 -8 29 -24 54 -37 63 -32 109
-68 129 -102 10 -16 20 -27 22 -24 3 2 5 -6 6 -18 1 -61 -8 -57 136 -54 l132
2 -2 72 c-2 81 -24 141 -74 204 -17 21 -36 36 -41 33 -6 -4 -8 -2 -5 3 4 6 -5
19 -20 29 -15 9 -36 26 -47 36 -11 10 -26 16 -34 13 -7 -2 -11 -1 -8 4 6 9
-158 98 -190 104 -11 2 -29 9 -41 15 -22 12 -23 11 -24 -35z"/>
<path d="M570 790 c0 -5 -3 -9 -7 -9 -5 1 -13 1 -20 0 -15 -1 -103 -86 -103
-99 0 -7 56 -11 155 -11 169 -2 175 1 135 52 -35 44 -160 97 -160 67z"/>
<path d="M440 525 c0 -22 59 -84 100 -105 24 -12 52 -18 81 -16 57 4 102 22
93 38 -5 7 -2 9 9 5 8 -3 21 1 27 9 16 18 140 20 140 2 0 -11 -110 -125 -120
-124 -14 2 -87 -37 -88 -47 -2 -13 -4 -242 -3 -269 1 -15 7 -15 69 6 94 33
122 47 115 59 -3 6 -1 7 6 3 11 -7 58 15 98 46 49 38 144 142 161 175 24 46
42 129 42 189 l0 44 -365 0 c-308 -1 -365 -3 -365 -15z"/>
</g>
</svg>
