<svg version="1.1" xmlns="http://www.w3.org/2000/svg" xmlns:xlink="http://www.w3.org/1999/xlink" x="0px" y="0px"
	 viewBox="0 0 24 24" width="24px" height="24px">
<style type="text/css">
	.st0{fill:#515151;}
</style>
<g>
	<path class="st0" d="M20.1,3.2l-4.3-2.4C15,0.4,14.1,0.1,13.2,0v5.1c1,0.1,2.1,0.5,2.9,1l0.6,0.4c1.5,0.9,2.5,2.3,2.5,3.7v0H24V9.8
		C24,7.1,22.5,4.6,20.1,3.2z"/>
	<path class="st0" d="M7.3,17.6c-1.5-0.9-2.5-2.3-2.5-3.7v-3.8c0-1.4,0.9-2.8,2.5-3.7L7.9,6c0.9-0.5,1.9-0.8,2.9-1V0
		C9.9,0.1,9,0.4,8.2,0.9L3.9,3.2C1.5,4.6,0,7.1,0,9.8v4.5c0,2.7,1.5,5.2,3.9,6.5l4.3,2.4c0.8,0.4,1.7,0.7,2.6,0.9v-5.1
		c-1-0.1-2.1-0.5-2.9-1L7.3,17.6z"/>
	<path class="st0" d="M9.2,8.7C8.6,9.1,8.2,9.6,8,10.1H16c-0.2-0.5-0.7-1-1.3-1.4l-0.4-0.2C13,7.7,11,7.7,9.6,8.5L9.2,8.7z"/>
	<path class="st0" d="M16,13.9h-2.8H8c0.2,0.5,0.7,1,1.3,1.4l0.4,0.2c1.4,0.8,3.4,0.8,4.8,0l0.4-0.2c0.1-0.1,0.2-0.1,0.3-0.2H19
		c-0.3,1-1.1,1.9-2.3,2.6L16.1,18c-0.9,0.5-1.9,0.8-2.9,1V24c0.9-0.1,1.8-0.4,2.6-0.9l4.3-2.4c2.2-1.2,3.6-3.3,3.9-5.7
		c0-0.3,0-0.5,0-0.8v-0.4h-4.8H16z"/>
</g>
</svg>
