<?xml version="1.0" encoding="utf-8"?>
<!-- Generator: Adobe Illustrator 22.0.0, SVG Export Plug-In . SVG Version: 6.00 Build 0)  -->
<svg version="1.1" id="图层_1" xmlns="http://www.w3.org/2000/svg" xmlns:xlink="http://www.w3.org/1999/xlink" x="0px" y="0px"
	 viewBox="0 0 800 457.4" style="enable-background:new 0 0 800 457.4;" xml:space="preserve">
<style type="text/css">
	.st0{fill:#404040;}
	.st1{fill:#B3E3FF;stroke:#404040;stroke-width:4;stroke-linejoin:round;stroke-miterlimit:10;}
	.st2{fill:none;stroke:#404040;stroke-width:4;stroke-linecap:round;stroke-linejoin:round;stroke-miterlimit:10;}
	.st3{fill:#B18BE8;stroke:#404040;stroke-width:4;stroke-linecap:round;stroke-linejoin:round;stroke-miterlimit:10;}
	.st4{fill:#FFFFFF;stroke:#404040;stroke-width:4;stroke-linecap:round;stroke-linejoin:round;stroke-miterlimit:10;}
	.st5{fill:#565454;}
	.st6{font-family:'AdobeSongStd-Light-GBpc-EUC-H';}
	.st7{font-size:12px;}
</style>
<g id="centralized_x5F_workflow_x5F_14">
	<path class="st0" d="M570.5,203.8v4.3H569v-10.6h3.9c2,0,3.3,1.4,3.3,3.1c0,1.8-1.3,3.1-3.3,3.1L570.5,203.8L570.5,203.8z
		 M572.6,202.4c1.3,0,2.1-0.7,2.1-1.8s-0.8-1.8-2.1-1.8h-2.1v3.6H572.6z M579.9,204l1.9-0.3c0.4-0.1,0.6-0.3,0.6-0.5
		c0-0.7-0.5-1.3-1.6-1.3c-1,0-1.5,0.6-1.6,1.5l-1.4-0.3c0.2-1.4,1.4-2.3,3-2.3c2.2,0,3,1.2,3,2.6v3.6c0,0.6,0.1,1,0.1,1.2h-1.4
		c0-0.2-0.1-0.5-0.1-1c-0.3,0.5-1,1.2-2.3,1.2c-1.5,0-2.4-1-2.4-2.2C577.7,204.9,578.6,204.2,579.9,204z M582.4,205v-0.3l-2.2,0.3
		c-0.6,0.1-1,0.4-1,1.1c0,0.5,0.4,1,1.2,1C581.4,207.1,582.4,206.6,582.4,205z M589.2,208.3c-1.7,0-2.7-1.3-2.7-2.9v-4.5h1.4v4.3
		c0,1,0.4,1.9,1.6,1.9c1.1,0,1.7-0.8,1.7-1.8v-4.4h1.4v5.9c0,0.6,0,1.1,0.1,1.3h-1.4c0-0.2-0.1-0.6-0.1-0.9
		C590.9,208,590,208.3,589.2,208.3L589.2,208.3z M596.4,205.8c0.1,0.8,0.7,1.3,1.7,1.3c0.8,0,1.2-0.4,1.2-1c0-0.5-0.3-0.8-0.9-0.9
		l-1.2-0.3c-1.1-0.2-1.8-1-1.8-2c0-1.2,1.2-2.3,2.6-2.3c2,0,2.6,1.3,2.7,1.9l-1.2,0.5c-0.1-0.4-0.4-1.2-1.5-1.2
		c-0.7,0-1.2,0.5-1.2,1c0,0.4,0.3,0.8,0.8,0.9l1.2,0.3c1.3,0.3,2,1.1,2,2.1s-0.9,2.2-2.6,2.2c-2,0-2.8-1.3-2.9-2.1L596.4,205.8
		L596.4,205.8z M609.6,206.1c-0.4,1.3-1.6,2.3-3.2,2.3c-1.9,0-3.6-1.4-3.6-3.9c0-2.3,1.6-3.8,3.4-3.8c2.2,0,3.5,1.5,3.5,3.8v0.4
		h-5.4c0,1.3,1,2.2,2.2,2.2s1.8-0.6,2-1.5L609.6,206.1z M608.1,203.8c0-1-0.7-1.8-2-1.8c-1.2,0-1.9,0.9-2,1.8H608.1z M618.1,208.1
		h-1.4v-10.9h1.4v4.5c0.5-0.8,1.4-1.1,2.2-1.1c1.7,0,2.6,1.2,2.6,2.8v4.6h-1.4v-4.3c0-1-0.4-1.8-1.7-1.8c-1.1,0-1.6,0.8-1.7,1.9
		L618.1,208.1L618.1,208.1z M632.1,206.1c-0.4,1.3-1.6,2.3-3.2,2.3c-1.9,0-3.6-1.4-3.6-3.9c0-2.3,1.6-3.8,3.4-3.8
		c2.2,0,3.5,1.5,3.5,3.8v0.4h-5.4c0,1.3,1,2.2,2.2,2.2s1.8-0.6,2-1.5L632.1,206.1z M630.7,203.8c0-1-0.7-1.8-2-1.8
		c-1.2,0-1.9,0.9-2,1.8H630.7z M638.7,202.3h-0.6c-1.2,0-2,0.6-2,2.2v3.6h-1.4v-7.2h1.4v1.3c0.5-1.1,1.4-1.4,2.2-1.4h0.5v1.5
		L638.7,202.3z M647.2,206.1c-0.4,1.3-1.6,2.3-3.2,2.3c-1.9,0-3.6-1.4-3.6-3.9c0-2.3,1.6-3.8,3.4-3.8c2.2,0,3.5,1.5,3.5,3.8v0.4
		h-5.4c0,1.3,1,2.2,2.2,2.2s1.8-0.6,2-1.5L647.2,206.1z M645.7,203.8c0-1-0.7-1.8-2-1.8c-1.2,0-1.9,0.9-2,1.8H645.7z M656.2,202.2
		v5.9h-1.5v-5.9h-1.3v-1.3h1.3v-1.2c0-1.6,1.1-2.5,2.4-2.5c0.5,0,0.8,0.1,0.8,0.2v1.3c-0.1,0-0.3-0.1-0.6-0.1
		c-0.5,0-1.1,0.2-1.1,1.2v1.1h1.7v1.3H656.2L656.2,202.2z M666.6,204.5c0,2.2-1.5,3.8-3.7,3.8s-3.7-1.6-3.7-3.8s1.5-3.8,3.7-3.8
		S666.6,202.3,666.6,204.5z M665.2,204.5c0-1.7-1.1-2.6-2.2-2.6s-2.2,0.9-2.2,2.6c0,1.7,1,2.6,2.2,2.6S665.2,206.2,665.2,204.5z
		 M673.2,202.3h-0.6c-1.2,0-2,0.6-2,2.2v3.6h-1.4v-7.2h1.4v1.3c0.5-1.1,1.4-1.4,2.2-1.4h0.5v1.5L673.2,202.3z M559.1,226.1v-7.2h1.3
		v1c0.5-0.8,1.4-1.2,2.2-1.2c0.9,0,1.8,0.4,2.2,1.4c0.6-1,1.5-1.4,2.4-1.4c1.3,0,2.5,0.9,2.5,2.7v4.7h-1.4v-4.5
		c0-0.9-0.5-1.6-1.5-1.6s-1.7,0.8-1.7,1.8v4.4h-1.4v-4.5c0-0.9-0.4-1.6-1.5-1.6c-1,0-1.7,0.8-1.7,1.8v4.3L559.1,226.1L559.1,226.1z
		 M579,224.1c-0.4,1.3-1.6,2.3-3.2,2.3c-1.9,0-3.6-1.4-3.6-3.9c0-2.3,1.6-3.8,3.4-3.8c2.2,0,3.5,1.5,3.5,3.8v0.4h-5.4
		c0,1.3,1,2.2,2.2,2.2s1.8-0.6,2-1.5L579,224.1z M577.5,221.8c0-1-0.7-1.8-2-1.8c-1.2,0-1.9,0.9-2,1.8H577.5z M585.6,220.3H585
		c-1.2,0-2,0.6-2,2.2v3.6h-1.4v-7.2h1.4v1.3c0.5-1.1,1.4-1.4,2.2-1.4h0.5v1.5L585.6,220.3z M588.6,226.2c0.1,1,0.9,1.8,2,1.8
		c1.5,0,2.2-0.8,2.2-2.3v-1c-0.3,0.7-1.1,1.2-2.2,1.2c-1.9,0-3.3-1.5-3.3-3.5s1.3-3.5,3.3-3.5c1.1,0,1.9,0.4,2.2,1.1v-1h1.4v6.7
		c0,1.8-0.9,3.6-3.6,3.6c-1.8,0-3.1-1.1-3.3-2.7L588.6,226.2L588.6,226.2z M592.8,222.3c0-1.4-0.8-2.3-2.1-2.3
		c-1.2,0-2.1,0.9-2.1,2.3s0.8,2.3,2.1,2.3S592.8,223.7,592.8,222.3z M603.4,224.1c-0.4,1.3-1.6,2.3-3.2,2.3c-1.9,0-3.6-1.4-3.6-3.9
		c0-2.3,1.6-3.8,3.4-3.8c2.2,0,3.5,1.5,3.5,3.8v0.4H598c0,1.3,1,2.2,2.2,2.2s1.8-0.6,2-1.5L603.4,224.1L603.4,224.1z M602,221.8
		c0-1-0.7-1.8-2-1.8c-1.2,0-1.9,0.9-2,1.8H602z M614.5,220.3h-0.6c-1.2,0-2,0.6-2,2.2v3.6h-1.4v-7.2h1.4v1.3
		c0.5-1.1,1.4-1.4,2.2-1.4h0.5v1.5L614.5,220.3z M623,224.1c-0.4,1.3-1.6,2.3-3.2,2.3c-1.9,0-3.6-1.4-3.6-3.9c0-2.3,1.6-3.8,3.4-3.8
		c2.2,0,3.5,1.5,3.5,3.8v0.4h-5.4c0,1.3,1,2.2,2.2,2.2s1.8-0.6,2-1.5L623,224.1z M621.6,221.8c0-1-0.7-1.8-2-1.8
		c-1.2,0-1.9,0.9-2,1.8H621.6z M626.2,223.8c0.1,0.8,0.7,1.3,1.7,1.3c0.8,0,1.2-0.4,1.2-1c0-0.5-0.3-0.8-0.9-0.9L627,223
		c-1.1-0.2-1.8-1-1.8-2c0-1.2,1.2-2.3,2.6-2.3c2,0,2.6,1.3,2.7,1.9l-1.2,0.5c-0.1-0.4-0.4-1.2-1.5-1.2c-0.7,0-1.2,0.5-1.2,1
		c0,0.4,0.3,0.8,0.8,0.9l1.2,0.3c1.3,0.3,2,1.1,2,2.1s-0.9,2.2-2.6,2.2c-2,0-2.8-1.3-2.9-2.1L626.2,223.8L626.2,223.8z M639.8,222.5
		c0,2.2-1.5,3.8-3.7,3.8s-3.7-1.6-3.7-3.8s1.5-3.8,3.7-3.8S639.8,220.3,639.8,222.5z M638.4,222.5c0-1.7-1.1-2.6-2.2-2.6
		s-2.2,0.9-2.2,2.6c0,1.7,1,2.6,2.2,2.6S638.4,224.2,638.4,222.5z M642.4,226.1v-10.9h1.4v10.9H642.4z M649.5,226.3
		c-1.7,0-2.7-1.3-2.7-2.9v-4.5h1.4v4.3c0,1,0.4,1.9,1.6,1.9c1.1,0,1.7-0.8,1.7-1.8v-4.4h1.4v5.9c0,0.6,0,1.1,0.1,1.3h-1.4
		c0-0.2-0.1-0.6-0.1-0.9C651.2,226,650.3,226.3,649.5,226.3L649.5,226.3z M658,218.9h1.6v1.3H658v3.8c0,0.7,0.3,1,1,1
		c0.2,0,0.4,0,0.6-0.1v1.2c-0.1,0-0.5,0.1-1,0.1c-1.2,0-2-0.8-2-2.1v-4h-1.4v-1.3h0.4c0.8,0,1.1-0.5,1.1-1.1v-1.2h1.3L658,218.9
		L658,218.9z M662.9,215.1c0.6,0,1,0.4,1,1s-0.4,1-1,1s-1-0.5-1-1S662.3,215.1,662.9,215.1z M662.2,226.1v-7.2h1.4v7.2H662.2z
		 M673.5,222.5c0,2.2-1.5,3.8-3.7,3.8s-3.7-1.6-3.7-3.8s1.5-3.8,3.7-3.8S673.5,220.3,673.5,222.5z M672.1,222.5
		c0-1.7-1.1-2.6-2.2-2.6s-2.2,0.9-2.2,2.6c0,1.7,1.1,2.6,2.2,2.6S672.1,224.2,672.1,222.5z M677.5,226.1h-1.4v-7.2h1.4v1
		c0.5-0.9,1.4-1.2,2.2-1.2c1.7,0,2.6,1.2,2.6,2.8v4.6h-1.4v-4.3c0-1-0.4-1.8-1.7-1.8c-1.1,0-1.7,0.9-1.7,2L677.5,226.1L677.5,226.1z
		"/>
	<path class="st1" d="M572.5,399.8h96.2v50h-96.2V399.8z"/>
	<path class="st0" d="M607.2,430.8v-8.3l-3.6,8.3h-1.3l-3.6-8.3v8.3h-1.5v-10.6h2l3.7,8.7l3.8-8.7h2v10.6H607.2L607.2,430.8z
		 M613.6,426.7l1.9-0.3c0.4-0.1,0.6-0.3,0.6-0.5c0-0.7-0.5-1.3-1.6-1.3c-1,0-1.5,0.6-1.6,1.5l-1.4-0.3c0.2-1.4,1.4-2.3,3-2.3
		c2.2,0,3,1.2,3,2.6v3.6c0,0.6,0.1,1,0.1,1.2h-1.4c0-0.2-0.1-0.5-0.1-1c-0.3,0.5-1,1.2-2.3,1.2c-1.5,0-2.4-1-2.4-2.2
		C611.4,427.6,612.4,426.8,613.6,426.7L613.6,426.7z M616.1,427.7v-0.3l-2.2,0.3c-0.6,0.1-1,0.4-1,1.1c0,0.5,0.4,1,1.2,1
		C615.2,429.8,616.1,429.3,616.1,427.7z M621.1,428.5c0.1,0.8,0.7,1.3,1.7,1.3c0.8,0,1.2-0.4,1.2-1c0-0.5-0.3-0.8-0.9-0.9l-1.2-0.3
		c-1.1-0.2-1.8-1-1.8-2c0-1.2,1.2-2.3,2.6-2.3c2,0,2.6,1.3,2.7,1.9l-1.2,0.5c-0.1-0.4-0.4-1.2-1.5-1.2c-0.7,0-1.2,0.5-1.2,1
		c0,0.4,0.3,0.8,0.8,0.9l1.2,0.3c1.3,0.3,2,1.1,2,2.1s-0.9,2.2-2.6,2.2c-2,0-2.8-1.3-2.9-2.1L621.1,428.5L621.1,428.5z M629.9,423.6
		h1.6v1.3h-1.6v3.8c0,0.7,0.3,1,1,1c0.2,0,0.4,0,0.6-0.1v1.2c-0.1,0-0.5,0.1-1,0.1c-1.2,0-2-0.8-2-2.1v-4h-1.4v-1.3h0.4
		c0.8,0,1.1-0.5,1.1-1.1v-1.2h1.3L629.9,423.6L629.9,423.6z M640.3,428.7c-0.4,1.3-1.6,2.3-3.2,2.3c-1.9,0-3.6-1.4-3.6-3.9
		c0-2.3,1.6-3.8,3.4-3.8c2.2,0,3.5,1.5,3.5,3.8v0.4H635c0,1.3,1,2.2,2.2,2.2s1.8-0.6,2-1.5L640.3,428.7z M638.9,426.4
		c0-1-0.7-1.8-2-1.8c-1.2,0-1.9,0.9-2,1.8H638.9z M646.9,425h-0.6c-1.2,0-2,0.6-2,2.2v3.6h-1.4v-7.2h1.4v1.3
		c0.5-1.1,1.4-1.4,2.2-1.4h0.5v1.5H646.9z"/>
	<path class="st2" d="M620.6,356.3v23.5 M609.7,365l10.9-10.9l10.8,10.9 M620.6,246.3v23.5 M116.6,229.6h333.5 M724.6,311.6h-83
		h41.2 M527.9,270.6c0-22.6-18.4-41-41-41H284.8 M527.9,270.6c0,22.6,18.4,41,41,41h30.7"/>
	<circle class="st3" cx="429.1" cy="229.6" r="21"/>
	<circle class="st3" cx="345.9" cy="229.6" r="21"/>
	<circle class="st4" cx="262.7" cy="229.6" r="21"/>
	<circle class="st4" cx="179.4" cy="229.6" r="21"/>
	<circle class="st4" cx="96.2" cy="229.6" r="21"/>
	<circle class="st4" cx="703.8" cy="311.6" r="21"/>
	<circle class="st1" cx="620.6" cy="311.6" r="21"/>
	<path class="st2" d="M429.1,184.6v-23.5 M440,175.9l-10.9,10.9l-10.8-10.9"/>
	<path class="st3" d="M361.1,90.2h136v50h-136V90.2z"/>
	<path class="st0" d="M382.5,110.4c2.7,0,5.3,2,5.3,5.5c0,3.6-2.7,5.5-5.3,5.5c-2.7,0-5.3-2-5.3-5.5
		C377.1,112.4,379.8,110.4,382.5,110.4z M382.5,120.1c2,0,3.8-1.4,3.8-4.2c0-2.8-1.9-4.2-3.8-4.2c-2,0-3.8,1.4-3.8,4.2
		C378.6,118.7,380.5,120.1,382.5,120.1z M394.4,115.4h-0.6c-1.2,0-2,0.6-2,2.2v3.6h-1.4V114h1.4v1.3c0.5-1.1,1.4-1.4,2.2-1.4h0.5
		v1.5H394.4z M397.4,110.3c0.6,0,1,0.5,1,1c0,0.6-0.4,1-1,1s-1-0.5-1-1C396.4,110.7,396.8,110.3,397.4,110.3z M396.7,121.2V114h1.4
		v7.2H396.7z M402.1,121.3c0.1,1,0.9,1.8,2,1.8c1.5,0,2.2-0.8,2.2-2.3v-1c-0.3,0.7-1.1,1.2-2.2,1.2c-1.9,0-3.3-1.5-3.3-3.5
		c0-1.9,1.3-3.5,3.3-3.5c1.1,0,1.9,0.4,2.2,1.1v-1h1.4v6.7c0,1.8-0.9,3.6-3.6,3.6c-1.8,0-3.1-1.1-3.3-2.7
		C400.8,121.7,402.1,121.3,402.1,121.3z M406.3,117.4c0-1.4-0.8-2.3-2.1-2.3c-1.2,0-2.1,0.9-2.1,2.3s0.8,2.3,2.1,2.3
		S406.3,118.8,406.3,117.4z M411.3,110.3c0.6,0,1,0.5,1,1c0,0.6-0.4,1-1,1s-1-0.5-1-1C410.3,110.7,410.8,110.3,411.3,110.3z
		 M410.7,121.2V114h1.4v7.2H410.7z M416.6,121.2h-1.4V114h1.4v1c0.5-0.9,1.4-1.2,2.2-1.2c1.7,0,2.6,1.2,2.6,2.9v4.6H420V117
		c0-1-0.4-1.8-1.7-1.8c-1.1,0-1.7,0.9-1.7,2V121.2z M424.5,121.2h-1.4l5.1-10.6h1.4L424.5,121.2z M441.8,121.2V113l-3.6,8.3h-1.3
		l-3.6-8.3v8.3h-1.5v-10.6h2l3.7,8.7l3.8-8.7h2v10.6h-1.5V121.2z M448.2,117.1l1.9-0.3c0.4-0.1,0.6-0.3,0.6-0.5
		c0-0.7-0.5-1.3-1.6-1.3c-1,0-1.5,0.6-1.6,1.5l-1.4-0.3c0.2-1.4,1.4-2.3,3-2.3c2.2,0,3,1.2,3,2.6v3.6c0,0.6,0.1,1,0.1,1.2h-1.4
		c0-0.2-0.1-0.5-0.1-1c-0.3,0.5-1,1.2-2.3,1.2c-1.5,0-2.4-1-2.4-2.2C446.1,118,447,117.3,448.2,117.1L448.2,117.1z M450.8,118.1
		v-0.3l-2.2,0.3c-0.6,0.1-1.1,0.4-1.1,1.1c0,0.5,0.4,1,1.2,1C449.8,120.3,450.8,119.7,450.8,118.1z M455.7,118.9
		c0.1,0.8,0.7,1.3,1.7,1.3c0.8,0,1.2-0.5,1.2-1c0-0.4-0.3-0.8-0.9-0.9l-1.2-0.3c-1.1-0.2-1.8-1-1.8-2c0-1.2,1.2-2.3,2.6-2.3
		c2,0,2.6,1.3,2.7,1.9l-1.2,0.5c-0.1-0.4-0.4-1.2-1.5-1.2c-0.7,0-1.2,0.5-1.2,1c0,0.4,0.3,0.8,0.8,0.9l1.2,0.3c1.3,0.3,2,1.1,2,2.1
		s-0.9,2.2-2.6,2.2c-2,0-2.8-1.3-2.9-2.1L455.7,118.9L455.7,118.9z M464.5,114h1.6v1.3h-1.6v3.8c0,0.7,0.3,1,1,1
		c0.2,0,0.4,0,0.6-0.1v1.2c-0.1,0-0.5,0.1-1,0.1c-1.2,0-2-0.8-2-2.1v-4h-1.4V114h0.4c0.8,0,1.1-0.5,1.1-1.1v-1.2h1.3V114L464.5,114z
		 M474.9,119.2c-0.4,1.3-1.6,2.3-3.2,2.3c-1.9,0-3.6-1.4-3.6-3.9c0-2.3,1.6-3.8,3.4-3.8c2.2,0,3.5,1.5,3.5,3.8v0.5h-5.4
		c0,1.3,1,2.2,2.2,2.2s1.8-0.6,2-1.5L474.9,119.2z M473.5,116.9c0-1-0.7-1.8-2-1.8c-1.2,0-1.9,0.9-2,1.8H473.5z M481.5,115.4h-0.6
		c-1.2,0-2,0.6-2,2.2v3.6h-1.4V114h1.4v1.3c0.5-1.1,1.4-1.4,2.2-1.4h0.5v1.5H481.5z"/>
</g>
<text transform="matrix(1 0 0 1 334 17.8898)" class="st5 st6 st7">小红的仓库</text>
</svg>
