<?xml version="1.0" encoding="utf-8"?>
<!-- Generator: Adobe Illustrator 22.0.0, SVG Export Plug-In . SVG Version: 6.00 Build 0)  -->
<svg version="1.1" id="图层_1" xmlns="http://www.w3.org/2000/svg" xmlns:xlink="http://www.w3.org/1999/xlink" x="0px" y="0px"
	 viewBox="0 0 800 485" style="enable-background:new 0 0 800 485;" xml:space="preserve">
<style type="text/css">
	.st0{fill:#B3E3FF;stroke:#404040;stroke-width:4;stroke-linejoin:round;stroke-miterlimit:10;}
	.st1{fill:#404040;}
	.st2{fill:none;stroke:#404040;stroke-width:4;stroke-linecap:round;stroke-linejoin:round;stroke-miterlimit:10;}
	.st3{fill:#FFFFFF;stroke:#404040;stroke-width:4;stroke-linecap:round;stroke-linejoin:round;stroke-miterlimit:10;}
	.st4{fill:#B18BE8;stroke:#404040;stroke-width:4;stroke-linecap:round;stroke-linejoin:round;stroke-miterlimit:10;}
	.st5{font-family:'AdobeSongStd-Light-GBpc-EUC-H';}
	.st6{font-size:12px;}
</style>
<g id="centralized_x5F_workflow_x5F_12">
	<path class="st0" d="M695.7,387.2h96.2v50h-96.2V387.2z"/>
	<path class="st1" d="M730.4,418.2V410l-3.6,8.3h-1.3l-3.6-8.3v8.3h-1.5v-10.6h2l3.7,8.7l3.8-8.7h2v10.6L730.4,418.2L730.4,418.2z
		 M736.9,414.1l1.9-0.3c0.4-0.1,0.6-0.3,0.6-0.5c0-0.7-0.5-1.3-1.6-1.3c-1,0-1.5,0.6-1.6,1.5l-1.4-0.3c0.2-1.4,1.4-2.3,3-2.3
		c2.2,0,3,1.2,3,2.6v3.6c0,0.6,0.1,1,0.1,1.2h-1.4c0-0.2-0.1-0.4-0.1-1c-0.3,0.5-1,1.2-2.3,1.2c-1.5,0-2.4-1-2.4-2.2
		C734.7,415,735.6,414.3,736.9,414.1L736.9,414.1z M739.4,415.1v-0.3l-2.2,0.3c-0.6,0.1-1,0.4-1,1.1c0,0.5,0.4,1.1,1.2,1.1
		C738.4,417.3,739.4,416.7,739.4,415.1z M744.3,415.9c0.1,0.8,0.7,1.3,1.7,1.3c0.8,0,1.2-0.4,1.2-1c0-0.5-0.3-0.8-0.9-0.9l-1.2-0.3
		c-1.1-0.2-1.8-1-1.8-2c0-1.2,1.2-2.3,2.6-2.3c2,0,2.6,1.3,2.7,1.9l-1.2,0.5c-0.1-0.4-0.4-1.2-1.5-1.2c-0.7,0-1.2,0.5-1.2,1
		c0,0.4,0.3,0.8,0.8,0.9l1.2,0.3c1.3,0.3,2,1.1,2,2.1s-0.9,2.2-2.6,2.2c-2,0-2.8-1.3-2.9-2.1L744.3,415.9L744.3,415.9z M753.1,411
		h1.6v1.3h-1.6v3.8c0,0.7,0.3,1,1,1c0.2,0,0.4,0,0.6-0.1v1.2c-0.1,0-0.5,0.1-1,0.1c-1.2,0-2-0.8-2-2.1v-4h-1.4V411h0.4
		c0.8,0,1.1-0.5,1.1-1.1v-1.2h1.3L753.1,411L753.1,411z M763.5,416.2c-0.4,1.3-1.6,2.3-3.2,2.3c-1.9,0-3.6-1.4-3.6-3.9
		c0-2.3,1.6-3.8,3.4-3.8c2.2,0,3.5,1.5,3.5,3.8v0.5h-5.4c0,1.3,1,2.2,2.2,2.2s1.8-0.6,2-1.5L763.5,416.2z M762.1,413.9
		c0-1-0.7-1.8-2-1.8c-1.2,0-1.9,0.9-2,1.8H762.1z M770.1,412.4h-0.6c-1.2,0-2,0.6-2,2.2v3.6h-1.4V411h1.4v1.3
		c0.5-1.1,1.4-1.4,2.2-1.4h0.5v1.5H770.1z"/>
	<path class="st2" d="M743.8,343.7v23.5 M733,352.4l10.8-10.8l10.9,10.8 M653.4,442.7l14.4,5.2l-5.2,14.4"/>
	<path class="st3" d="M421,387.2h96.2v50H421V387.2z"/>
	<path class="st1" d="M455.7,418.2V410l-3.6,8.3h-1.3l-3.6-8.3v8.3h-1.5v-10.6h2l3.7,8.7l3.8-8.7h2v10.6L455.7,418.2L455.7,418.2z
		 M462.2,414.1l1.9-0.3c0.4-0.1,0.6-0.3,0.6-0.5c0-0.7-0.5-1.3-1.6-1.3c-1,0-1.5,0.6-1.6,1.5l-1.4-0.3c0.2-1.4,1.4-2.3,3-2.3
		c2.2,0,3,1.2,3,2.6v3.6c0,0.6,0.1,1,0.1,1.2h-1.4c0-0.2-0.1-0.4-0.1-1c-0.3,0.5-1,1.2-2.3,1.2c-1.5,0-2.4-1-2.4-2.2
		C460,415,460.9,414.3,462.2,414.1L462.2,414.1z M464.7,415.1v-0.3l-2.2,0.3c-0.6,0.1-1,0.4-1,1.1c0,0.5,0.4,1.1,1.2,1.1
		C463.7,417.3,464.7,416.7,464.7,415.1z M469.6,415.9c0.1,0.8,0.7,1.3,1.7,1.3c0.8,0,1.2-0.4,1.2-1c0-0.5-0.3-0.8-0.9-0.9l-1.2-0.3
		c-1.1-0.2-1.8-1-1.8-2c0-1.2,1.2-2.3,2.6-2.3c2,0,2.6,1.3,2.7,1.9l-1.2,0.5c-0.1-0.4-0.4-1.2-1.5-1.2c-0.7,0-1.2,0.5-1.2,1
		c0,0.4,0.3,0.8,0.8,0.9l1.2,0.3c1.3,0.3,2,1.1,2,2.1s-0.9,2.2-2.6,2.2c-2,0-2.8-1.3-2.9-2.1L469.6,415.9L469.6,415.9z M478.4,411
		h1.6v1.3h-1.6v3.8c0,0.7,0.3,1,1,1c0.2,0,0.4,0,0.6-0.1v1.2c-0.1,0-0.5,0.1-1,0.1c-1.2,0-2-0.8-2-2.1v-4h-1.4V411h0.4
		c0.8,0,1.1-0.5,1.1-1.1v-1.2h1.3V411L478.4,411z M488.8,416.2c-0.4,1.3-1.6,2.3-3.2,2.3c-1.9,0-3.6-1.4-3.6-3.9
		c0-2.3,1.6-3.8,3.4-3.8c2.2,0,3.5,1.5,3.5,3.8v0.5h-5.4c0,1.3,1,2.2,2.2,2.2s1.8-0.6,2-1.5L488.8,416.2z M487.4,413.9
		c0-1-0.7-1.8-2-1.8c-1.2,0-1.9,0.9-2,1.8H487.4z M495.4,412.4h-0.6c-1.2,0-2,0.6-2,2.2v3.6h-1.4V411h1.4v1.3
		c0.5-1.1,1.4-1.4,2.2-1.4h0.5v1.5H495.4z"/>
	<path class="st2" d="M469.1,343.7v23.5 M458.3,352.4l10.8-10.8l10.9,10.8 M489.9,299.1h-83h41.2 M293.2,258.1c0-22.6-18.4-41-41-41
		H50.1 M293.2,258.1c0,22.6,18.4,41,41,41h30.7 M50.1,217.1h440"/>
	<circle class="st3" cx="195.6" cy="217.1" r="21"/>
	<circle class="st3" cx="112.4" cy="217.1" r="21"/>
	<circle class="st3" cx="469.1" cy="299.1" r="21"/>
	<circle class="st3" cx="385.9" cy="299.1" r="21"/>
	<path class="st2" d="M681.6,299.1h41.2 M567.9,258.1c0-22.6-18.4-41-41-41H324.8 M567.9,258.1c0,22.6,18.4,41,41,41h30.7"/>
	<circle class="st4" cx="469.1" cy="217.1" r="21"/>
	<circle class="st0" cx="743.8" cy="299.1" r="21"/>
	<circle class="st0" cx="660.6" cy="299.1" r="21"/>
	<circle class="st4" cx="385.9" cy="217.1" r="21"/>
	<circle class="st3" cx="29.1" cy="217.1" r="21"/>
	<path class="st2" d="M469.1,172.1v-23.5 M480,163.4l-10.9,10.8l-10.8-10.8"/>
	<path class="st4" d="M401.1,77.7h136v50h-136L401.1,77.7z"/>
	<path class="st1" d="M422.5,97.8c2.7,0,5.3,2,5.3,5.5c0,3.6-2.7,5.5-5.3,5.5c-2.7,0-5.3-2-5.3-5.5
		C417.1,99.8,419.8,97.8,422.5,97.8z M422.5,107.6c2,0,3.8-1.4,3.8-4.2c0-2.8-1.9-4.2-3.8-4.2c-2,0-3.8,1.4-3.8,4.2
		C418.6,106.1,420.5,107.6,422.5,107.6z M434.4,102.9h-0.6c-1.2,0-2,0.6-2,2.2v3.6h-1.4v-7.2h1.4v1.3c0.5-1.1,1.4-1.4,2.2-1.4h0.5
		v1.5H434.4z M437.4,97.7c0.6,0,1,0.5,1,1c0,0.6-0.4,1-1,1s-1-0.5-1-1S436.8,97.7,437.4,97.7z M436.7,108.7v-7.2h1.4v7.2H436.7z
		 M442.1,108.8c0.1,1,0.9,1.8,2,1.8c1.5,0,2.2-0.8,2.2-2.3v-1c-0.3,0.7-1.1,1.2-2.2,1.2c-1.9,0-3.3-1.5-3.3-3.5
		c0-1.9,1.3-3.5,3.3-3.5c1.1,0,1.9,0.4,2.2,1.1v-1h1.4v6.7c0,1.8-0.9,3.6-3.6,3.6c-1.8,0-3.1-1.1-3.3-2.7
		C440.8,109.2,442.1,108.8,442.1,108.8z M446.3,104.9c0-1.4-0.8-2.3-2.1-2.3c-1.2,0-2.1,0.9-2.1,2.3s0.8,2.3,2.1,2.3
		S446.3,106.2,446.3,104.9z M451.3,97.7c0.6,0,1,0.5,1,1c0,0.6-0.4,1-1,1s-1-0.5-1-1S450.8,97.7,451.3,97.7z M450.6,108.7v-7.2h1.4
		v7.2H450.6z M456.6,108.7h-1.4v-7.2h1.4v1c0.5-0.9,1.4-1.2,2.2-1.2c1.7,0,2.6,1.2,2.6,2.9v4.6H460v-4.3c0-1-0.4-1.8-1.7-1.8
		c-1.1,0-1.7,0.9-1.7,2V108.7z M464.5,108.7h-1.4l5.1-10.6h1.4L464.5,108.7z M481.8,108.7v-8.3l-3.6,8.3h-1.3l-3.6-8.3v8.3h-1.5
		V98.1h2l3.7,8.7l3.8-8.7h2v10.6H481.8z M488.2,104.6l1.9-0.3c0.4-0.1,0.6-0.3,0.6-0.5c0-0.7-0.5-1.3-1.6-1.3c-1,0-1.5,0.6-1.6,1.5
		l-1.4-0.3c0.2-1.4,1.4-2.3,3-2.3c2.2,0,3,1.2,3,2.6v3.6c0,0.6,0.1,1,0.1,1.2h-1.4c0-0.2-0.1-0.5-0.1-1c-0.3,0.5-1,1.2-2.3,1.2
		c-1.5,0-2.4-1-2.4-2.2C486,105.5,487,104.7,488.2,104.6L488.2,104.6z M490.7,105.6v-0.3l-2.2,0.3c-0.6,0.1-1.1,0.4-1.1,1.1
		c0,0.5,0.4,1,1.2,1C489.8,107.7,490.7,107.2,490.7,105.6z M495.7,106.4c0.1,0.8,0.7,1.3,1.7,1.3c0.8,0,1.2-0.5,1.2-1
		c0-0.4-0.3-0.8-0.9-0.9l-1.2-0.3c-1.1-0.2-1.8-1-1.8-2c0-1.2,1.2-2.3,2.6-2.3c2,0,2.6,1.3,2.7,1.9l-1.2,0.5
		c-0.1-0.4-0.4-1.2-1.5-1.2c-0.7,0-1.2,0.5-1.2,1c0,0.4,0.3,0.8,0.8,0.9l1.2,0.3c1.3,0.3,2,1.1,2,2.1s-0.9,2.2-2.6,2.2
		c-2,0-2.8-1.3-2.9-2.1L495.7,106.4L495.7,106.4z M504.5,101.5h1.6v1.3h-1.6v3.8c0,0.7,0.3,1,1,1c0.2,0,0.4,0,0.6-0.1v1.2
		c-0.1,0-0.5,0.1-1,0.1c-1.2,0-2-0.8-2-2.1v-4h-1.4v-1.3h0.4c0.8,0,1.1-0.5,1.1-1.1v-1.2h1.3C504.5,99.1,504.5,101.5,504.5,101.5z
		 M514.9,106.6c-0.4,1.3-1.6,2.3-3.2,2.3c-1.9,0-3.6-1.4-3.6-3.9c0-2.3,1.6-3.8,3.4-3.8c2.2,0,3.5,1.5,3.5,3.8v0.5h-5.4
		c0,1.3,1,2.2,2.2,2.2c1.2,0,1.8-0.6,2-1.5L514.9,106.6L514.9,106.6z M513.5,104.3c0-1-0.7-1.8-2-1.8c-1.2,0-1.9,0.9-2,1.8H513.5z
		 M521.5,102.9h-0.6c-1.2,0-2,0.6-2,2.2v3.6h-1.4v-7.2h1.4v1.3c0.5-1.1,1.4-1.4,2.2-1.4h0.5v1.5H521.5z"/>
	<path class="st2" d="M539.5,450.2c18.3,10.1,39.3,15.8,61.6,15.8c22.8,0,44.2-6,62.8-16.5"/>
</g>
<text transform="matrix(1 0 0 1 329.1003 31.2813)" class="st5 st6">小红的仓库</text>
</svg>
